<svg width="500" height="800" viewBox="0 0 500 800" fill="none" xmlns="http://www.w3.org/2000/svg">
<path d="M160 262V474H343V262H160Z" fill="#FF7A00" stroke="black" stroke-width="3"/>
<path d="M329.124 474H172.38L121 524L99 607.315L155.408 690.306L255.744 719L341.604 690.306L405 630.27L380.5 524L329.124 474Z" fill="#FFCA00" stroke="white" stroke-width="3"/>
<path d="M343 292L315.5 87H207L165 115.137L155 249.507V292H343Z" fill="#A12161" stroke="white" stroke-width="3"/>
<path d="M359.5 457.5V175C359.5 78.3281 345.281 73 250 73C154.719 73 142 79.6562 142 176.328V457.5C111.141 496.172 87 521.875 87 575C87 699.219 125.781 725 250 725C374.219 725 416 699.219 416 575C416 521.875 390.438 495.938 359.5 457.5ZM250 700C181.047 700 125 643.953 125 576.406C125 536.562 144.141 500.031 175 476.797V176.328C175 134.922 208.594 101.328 250 101.328C291.406 101.328 325 134.922 325 176.328V476.797C355.859 499.844 375 536.562 375 576.406C375 643.906 318.906 700 250 700ZM250 500C208.578 500 175 533.578 175 575C175 616.422 208.578 650 250 650C291.422 650 325 616.422 325 575C325 533.578 291.406 500 250 500Z" fill="#440042"/>
<path d="M249 179C237.953 179 229 187.953 229 199C229 210.047 237.953 219 249 219C260.047 219 269 210.047 269 199C269 187.953 260.047 179 249 179ZM247.125 190.875C247.125 189.844 247.969 189 249 189C250.031 189 250.875 189.84 250.875 190.875V200.875C250.875 201.91 250.035 202.75 249 202.75C247.965 202.75 247.125 201.914 247.125 200.875V190.875ZM249 210.25C247.644 210.25 246.544 209.15 246.544 207.794C246.544 206.438 247.643 205.337 249 205.337C250.357 205.337 251.456 206.438 251.456 207.794C251.453 209.148 250.359 210.25 249 210.25Z" fill="white"/>
<path d="M257.715 381.5C259.294 381.5 260.572 380.38 260.572 379V374C260.572 372.62 259.294 371.5 257.715 371.5C256.135 371.5 254.857 372.62 254.857 374V379C254.857 380.383 256.134 381.5 257.715 381.5ZM252 378.094V371.5C252 370.12 250.723 369 249.143 369C247.564 369 246.286 370.117 246.286 371.5V377.75H249.857C250.616 377.75 251.331 377.883 252 378.094ZM243.429 377.75V361.5C243.429 360.12 242.151 359 240.572 359C238.992 359 237.715 360.12 237.715 361.5V377.812C237.952 377.789 238.184 377.75 238.429 377.75H243.429ZM266.286 374C264.707 374 263.429 375.12 263.429 376.5V381.5C263.429 382.88 264.707 384 266.286 384C267.865 384 269.143 382.88 269.143 381.5V376.5C269.143 375.117 267.866 374 266.286 374ZM260.911 383.141C260 383.617 258.902 384 257.715 384C257.2 384 256.711 383.916 256.237 383.804C255.982 386.703 253.241 389 249.857 389H243.348C242.643 389 242 388.438 242 387.75C242 387.062 242.643 386.5 243.348 386.5L249.573 386.5C250.959 386.5 253.348 385.618 253.348 383.375C253.348 381.648 251.831 380.25 249.857 380.25H238.429C236.457 380.25 234.857 381.648 234.857 383.375V388.329C234.857 390.917 236.286 393.373 238.68 394.902L241.931 396.968C244.009 398.289 246.509 399 249.081 399H257C263.707 399 269.143 394.243 269.143 388.375V385.806C268.304 386.234 267.331 386.5 266.286 386.5C263.795 386.5 261.697 385.023 260.911 383.141Z" fill="white"/>
<path d="M281 450H324V425M324 425H290.885M324 425V401M324 401H302.747M324 401V372M324 372H281M324 372V346M324 346H290.885M324 346V320M324 320H302.747M324 320V292V474" stroke="white" stroke-width="2"/>
<path d="M290.885 292H324V267.904M324 267.904H302.747M324 267.904V238.789M324 238.789H281M324 238.789V212.685M324 212.685H290.885M324 212.685V186.582M324 186.582H302.747M324 186.582V166" stroke="white" stroke-width="2"/>
</svg>
